<svg xmlns="http://www.w3.org/2000/svg" viewBox="0 0 1200 630" width="1200" height="630">
  <rect width="1200" height="630" fill="#0A1128"/>
  <g stroke="#1B2647" stroke-width="1">
    <path d="M0 130h1200M0 500h1200"/>
  </g>

  <g transform="translate(72,64) scale(0.052)">
    <path fill="#00B4D8" fill-rule="evenodd" d="M 200,0 L 600,0 L 800,200 L 800,600 L 600,800 L 200,800 L 0,600 L 0,200 Z M 210,200 H 340 A 10,10 0 0 1 350,210 V 340 A 10,10 0 0 1 340,350 H 210 A 10,10 0 0 1 200,340 V 210 A 10,10 0 0 1 210,200 Z M 460,200 H 590 A 10,10 0 0 1 600,210 V 340 A 10,10 0 0 1 590,350 H 460 A 10,10 0 0 1 450,340 V 210 A 10,10 0 0 1 460,200 Z M 210,450 H 340 A 10,10 0 0 1 350,460 V 590 A 10,10 0 0 1 340,600 H 210 A 10,10 0 0 1 200,590 V 460 A 10,10 0 0 1 210,450 Z M 460,450 H 590 A 10,10 0 0 1 600,460 V 590 A 10,10 0 0 1 590,600 H 460 A 10,10 0 0 1 450,590 V 460 A 10,10 0 0 1 460,450 Z"/>
  </g>
  <text x="130" y="98" font-family="Space Mono, monospace" font-weight="700" font-size="26" fill="#F5F7FA">verify</text>

  <text x="72" y="228" font-family="IBM Plex Sans, Helvetica, sans-serif" font-weight="600" font-size="62" fill="#F5F7FA" letter-spacing="-1.5">Who really signed it?</text>
  <text x="72" y="284" font-family="IBM Plex Sans, Helvetica, sans-serif" font-size="27" fill="#7C8DB5">A screenshot proves nothing. Check the signature yourself.</text>

  <!-- verdict block, the product's actual output -->
  <rect x="72" y="330" width="1056" height="132" fill="#060B1C" rx="8"/>
  <rect x="72" y="330" width="4" height="132" fill="#32D74B"/>
  <text x="112" y="382" font-family="Space Mono, monospace" font-weight="700" font-size="34" fill="#32D74B">✓</text>
  <text x="158" y="380" font-family="IBM Plex Sans, Helvetica, sans-serif" font-weight="600" font-size="28" fill="#F5F7FA">Signature holds</text>
  <text x="158" y="418" font-family="Space Mono, monospace" font-size="17" fill="#7C8DB5">log-c0d0b75d28a1176b|e1|1787685293603504058|2026-08-25T19:14:53Z…</text>
  <text x="158" y="444" font-family="Space Mono, monospace" font-size="17" fill="#00B4D8">did:key:z6MkhKnKysmGobNX4u8VKRbusSjqv7jGN78pT1hXkewiar7S</text>

  <text x="72" y="552" font-family="IBM Plex Sans, Helvetica, sans-serif" font-size="22" fill="#7C8DB5">Runs entirely in your browser. No account, no install, no key.</text>
  <text x="1128" y="552" text-anchor="end" font-family="Space Mono, monospace" font-size="20" fill="#00B4D8">technocore.chat</text>
</svg>
